Coordinates
version=1
nRows=19
nColumns=33
inDegrees=yes

Units are S.I. units (second, meters, Newtons, ...)
Angles are in degrees.

endheader
time	ground_thorax_rot_x	ground_thorax_rot_y	ground_thorax_rot_z	ground_thorax_tx	ground_thorax_ty	ground_thorax_tz	clav_prot_r	clav_elev_r	scapula_abduction_r	scapula_elevation_r	scapula_upward_rot_r	scapula_winging_r	shoulder_elv_r	plane_of_elev_r	axial_rot_r	elbow_flexion_r	pro_sup_r	wrist_flex_r	wrist_dev_r	clav_prot_l	clav_elev_l	scapula_abduction_l	scapula_elevation_l	scapula_upward_rot_l	scapula_winging_l	shoulder_elv_l	plane_of_elev_l	axial_rot_l	elbow_flexion_l	pro_sup_l	wrist_flex_l	wrist_dev_l	
8.3200	-35.464506	-23.376511	35.943566	17.005300	789.638150	-67.855882	28.741712	-45.000000	38.141908	-45.000000	-45.000000	628.414345	-4970.130338	18.717972	180.000000	1448.081241	-146.710208	22.765925	16.102890	4.654186	29.564230	-30.872723	-44.982176	-45.000000	-3520.257629	629.497322	133.071931	-102.838604	711.684398	412.056649	10.455430	-16.658383	
8.3300	-35.934105	-23.212872	35.562227	13.960583	791.082328	-68.925880	28.665441	-45.000000	37.983145	-45.000000	-45.000000	628.406547	-4970.104557	18.672855	180.000000	1448.280852	-147.044129	23.615206	16.547036	4.742780	29.640973	-30.957891	-44.994481	-45.000000	-3520.102517	629.479560	133.076716	-103.140793	711.751016	412.379158	10.391497	-16.756146	
8.3400	-36.192550	-23.020610	35.244341	11.167136	791.861966	-69.305562	28.624342	-45.000000	37.884957	-45.000000	-45.000000	628.306521	-4970.062155	18.668610	180.000000	1448.425837	-147.594864	23.918918	16.788926	4.752068	29.695332	-30.993018	-45.000000	-45.000000	-3519.984689	629.457142	133.086880	-103.368446	711.789031	412.665135	10.346862	-16.846941	
8.3500	-36.270150	-22.803553	34.982153	8.581691	792.055304	-69.079951	28.612902	-45.000000	37.848883	-45.000000	-45.000000	628.128152	-4970.013241	18.687487	180.000000	1448.524155	-148.227327	23.748035	16.844873	4.695501	29.747530	-30.986865	-45.000000	-45.000000	-3519.915400	629.448611	133.110332	-103.526566	711.783421	412.910637	10.326197	-16.924383	
8.3600	-36.312214	-22.596187	34.731585	6.008475	792.187359	-68.751606	28.627783	-45.000000	37.835923	-45.000000	-45.000000	627.927854	-4969.963044	18.712304	180.000000	1448.602305	-148.763025	23.520008	16.864194	4.619734	29.799767	-30.958108	-45.000000	-45.000000	-3519.852145	629.450522	133.130364	-103.639606	711.769413	413.122825	10.314913	-16.995237	
8.3700	-36.297539	-22.385653	34.497806	3.482312	792.146058	-68.212971	28.650377	-45.000000	37.838369	-45.000000	-45.000000	627.698255	-4969.911918	18.747379	180.000000	1448.653638	-149.208998	23.152160	16.808263	4.519637	29.850774	-30.917460	-45.000000	-45.000000	-3519.798250	629.457646	133.148462	-103.717504	711.743195	413.295683	10.317317	-17.059441	
8.3800	-36.211136	-22.169669	34.279652	1.022234	791.865682	-67.401337	28.680621	-45.000000	37.850554	-45.000000	-45.000000	627.437510	-4969.854574	18.800275	180.000000	1448.672316	-149.572643	22.597407	16.658973	4.389340	29.879622	-30.867155	-45.000000	-45.000000	-3519.744680	629.459982	133.160381	-103.762653	711.708003	413.421362	10.331622	-17.116500	
8.3900	-35.905122	-21.945485	34.130410	-1.229099	790.850377	-65.842018	28.760618	-45.000000	37.933411	-45.000000	-45.000000	627.086364	-4969.792210	18.892311	180.000000	1448.620815	-149.832674	21.502554	16.252243	4.164888	29.902786	-30.760631	-45.000000	-45.000000	-3519.739944	629.479649	133.181343	-103.725985	711.620892	413.485666	10.372088	-17.155771	
8.4000	-35.429918	-21.711641	34.024249	-3.329731	789.264632	-63.694680	28.852619	-45.000000	38.063973	-45.000000	-45.000000	626.676807	-4969.717327	19.009752	180.000000	1448.511709	-150.024912	19.979051	15.643491	3.887588	29.915907	-30.621352	-45.000000	-45.000000	-3519.776253	629.500072	133.217250	-103.647573	711.496580	413.483468	10.437204	-17.182177	
8.4100	-34.825785	-21.473994	33.947803	-5.329235	787.260168	-61.105066	28.957244	-45.000000	38.228238	-45.000000	-45.000000	626.221878	-4969.632575	19.149353	180.000000	1448.354552	-150.169822	18.132231	14.881941	3.565827	29.915128	-30.454960	-45.000000	-45.000000	-3519.837951	629.513033	133.258633	-103.536928	711.350779	413.413811	10.521125	-17.199931	
8.4200	-34.290917	-21.242181	33.838515	-7.426692	785.516681	-58.723553	29.026244	-45.000000	38.363198	-45.000000	-45.000000	625.801545	-4969.544409	19.272115	180.000000	1448.210404	-150.318280	16.437787	14.189660	3.284875	29.912733	-30.318808	-45.000000	-45.000000	-3519.884880	629.513962	133.301062	-103.468744	711.214046	413.294193	10.612820	-17.216663	
8.4300	-33.836818	-21.027666	33.699437	-9.634850	784.115310	-56.624149	29.086674	-45.000000	38.476501	-45.000000	-45.000000	625.412548	-4969.459197	19.384337	180.000000	1448.083563	-150.465616	14.953770	13.588733	3.031342	29.912007	-30.199216	-45.000000	-45.000000	-3519.911120	629.510446	133.337279	-103.421005	711.084962	413.136820	10.708458	-17.231872	
8.4400	-33.613993	-20.834343	33.484173	-12.093770	783.571194	-55.297160	29.093211	-45.000000	38.516407	-45.000000	-45.000000	625.118304	-4969.379179	19.456335	180.000000	1448.019358	-150.645244	14.041357	13.245788	2.874124	29.923365	-30.140816	-45.000000	-45.000000	-3519.888435	629.498531	133.365841	-103.448787	710.989638	412.963732	10.798156	-17.251998	
8.4500	-33.580077	-20.664302	33.206592	-14.749505	783.755168	-54.614540	29.077326	-45.000000	38.494559	-45.000000	-45.000000	624.895271	-4969.307710	19.508456	180.000000	1448.000676	-150.836311	13.612752	13.117067	2.777266	29.932482	-30.121949	-45.000000	-45.000000	-3519.813078	629.477548	133.374580	-103.515242	710.923595	412.785205	10.878558	-17.274989	
8.4600	-33.704335	-20.511181	32.883692	-17.559661	784.557657	-54.468629	29.038453	-45.000000	38.427727	-45.000000	-45.000000	624.730123	-4969.244756	19.537589	180.000000	1448.022398	-151.031635	13.588909	13.166660	2.736900	29.955524	-30.137908	-45.000000	-45.000000	-3519.706537	629.464336	133.374967	-103.614731	710.875722	412.608038	10.953826	-17.297939	
8.4700	-33.822380	-20.369905	32.567426	-20.355088	785.419358	-54.321905	29.019766	-45.000000	38.370960	-45.000000	-45.000000	624.556012	-4969.187095	19.577087	180.000000	1448.030470	-151.197020	13.577348	13.212827	2.682181	29.982263	-30.142189	-45.000000	-45.000000	-3519.598718	629.462244	133.371001	-103.684171	710.816379	412.423737	11.034546	-17.315445	
8.4800	-33.939549	-20.232663	32.254298	-23.138933	786.337743	-54.172460	28.994569	-45.000000	38.317158	-45.000000	-45.000000	624.381380	-4969.129859	19.616991	180.000000	1448.027025	-151.348057	13.573451	13.257908	2.631958	30.017871	-30.146380	-45.000000	-45.000000	-3519.496771	629.468078	133.370791	-103.740828	710.754237	412.228816	11.121316	-17.330281	
8.4900	-34.056165	-20.099841	31.942221	-25.912097	787.310929	-54.018554	28.968009	-45.000000	38.264748	-45.000000	-45.000000	624.205938	-4969.072029	19.659577	180.000000	1448.009349	-151.490851	13.576804	13.303562	2.582294	30.053675	-30.151749	-45.000000	-45.000000	-3519.392757	629.475850	133.368849	-103.783649	710.693256	412.022491	11.212326	-17.343120	
8.5000	-34.171320	-19.971881	31.635462	-28.673111	788.337431	-53.858300	28.941120	-45.000000	38.218798	-45.000000	-45.000000	624.025503	-4969.014079	19.703383	180.000000	1447.981612	-151.628535	13.587203	13.350868	2.532463	30.097390	-30.157258	-45.000000	-45.000000	-3519.290939	629.494020	133.367857	-103.809298	710.634337	411.805665	11.307397	-17.353965	
